{
	"asset":{
		"version":"2.0",
		"generator":"Created using the official Cinema 4D glTF Exporter 1.000x284978"
	},
	"scenes":[{
		"nodes":[0]
	}],
	"nodes":[{
		"name":"空白",
		"translation":[0,
		0,
		0],
		"rotation":[0.706,
		0.048,
		0.048,
		-0.706],
		"scale":[1,
		1,
		-1],
		"children":[1,
		2,
		3,
		4]
	},
	{
		"name":"celling",
		"translation":[1483.596,
		-54.538,
		4.826],
		"rotation":[0,
		0,
		0,
		-1],
		"scale":[1,
		1,
		1],
		"mesh":0
	},
	{
		"name":"封顶 2",
		"translation":[1483.596,
		-54.538,
		-287.745],
		"rotation":[0,
		0,
		0,
		-1],
		"scale":[1,
		1,
		1],
		"mesh":1
	},
	{
		"name":"floor",
		"translation":[-272.635,
		65.404,
		35.858],
		"rotation":[0,
		0,
		0,
		-1],
		"scale":[1,
		1,
		1],
		"mesh":2
	},
	{
		"name":"scan",
		"translation":[-37809.617,
		13037.227,
		10.549],
		"rotation":[0,
		0,
		0,
		-1],
		"scale":[1,
		1,
		1],
		"mesh":3
	}],
	"meshes":[{
		"primitives":[{
			"attributes":{
				"POSITION":1
			},
			"indices":0,
			"material":0
		}]
	},
	{
		"primitives":[{
			"attributes":{
				"POSITION":3
			},
			"indices":2,
			"material":1
		}]
	},
	{
		"primitives":[{
			"attributes":{
				"POSITION":5
			},
			"indices":4,
			"material":2
		}]
	},
	{
		"primitives":[{
			"attributes":{
				"POSITION":7,
				"NORMAL":8,
				"TEXCOORD_0":9
			},
			"indices":6,
			"material":3
		}]
	}],
	"accessors":[{
		"bufferView":0,
		"componentType":5123,
		"type":"SCALAR",
		"count":666,
		"byteOffset":0,
		"min":[0],
		"max":[223]
	},
	{
		"bufferView":1,
		"componentType":5126,
		"type":"VEC3",
		"count":224,
		"byteOffset":0,
		"min":[-6570.496,
		-4645.496,
		0],
		"max":[6570.496,
		4645.496,
		0]
	},
	{
		"bufferView":2,
		"componentType":5123,
		"type":"SCALAR",
		"count":666,
		"byteOffset":0,
		"min":[0],
		"max":[223]
	},
	{
		"bufferView":3,
		"componentType":5126,
		"type":"VEC3",
		"count":224,
		"byteOffset":0,
		"min":[-6570.496,
		-4645.496,
		400],
		"max":[6570.496,
		4645.496,
		400]
	},
	{
		"bufferView":4,
		"componentType":5123,
		"type":"SCALAR",
		"count":1344,
		"byteOffset":0,
		"min":[0],
		"max":[447]
	},
	{
		"bufferView":5,
		"componentType":5126,
		"type":"VEC3",
		"count":448,
		"byteOffset":0,
		"min":[-4814.264,
		-4765.438,
		-25.747],
		"max":[8326.727,
		4525.554,
		77.24]
	},
	{
		"bufferView":6,
		"componentType":5123,
		"type":"SCALAR",
		"count":5376,
		"byteOffset":0,
		"min":[0],
		"max":[2031]
	},
	{
		"bufferView":7,
		"componentType":5126,
		"type":"VEC3",
		"count":2032,
		"byteOffset":0,
		"min":[32690.395,
		-17781.514,
		-32.162],
		"max":[45898.5,
		-8402.633,
		32.162]
	},
	{
		"bufferView":7,
		"componentType":5126,
		"type":"VEC3",
		"count":2032,
		"byteOffset":12,
		"min":[-1,
		-1,
		-1],
		"max":[1,
		1,
		1]
	},
	{
		"bufferView":7,
		"componentType":5126,
		"type":"VEC2",
		"count":2032,
		"byteOffset":24,
		"min":[0,
		0],
		"max":[1,
		1]
	}],
	"bufferViews":[{
		"buffer":0,
		"byteOffset":0,
		"byteLength":1332,
		"target":34963
	},
	{
		"buffer":0,
		"byteOffset":1332,
		"byteLength":2688,
		"target":34962
	},
	{
		"buffer":1,
		"byteOffset":0,
		"byteLength":1332,
		"target":34963
	},
	{
		"buffer":1,
		"byteOffset":1332,
		"byteLength":2688,
		"target":34962
	},
	{
		"buffer":2,
		"byteOffset":0,
		"byteLength":2688,
		"target":34963
	},
	{
		"buffer":2,
		"byteOffset":2688,
		"byteLength":5376,
		"target":34962
	},
	{
		"buffer":3,
		"byteOffset":0,
		"byteLength":10752,
		"target":34963
	},
	{
		"buffer":3,
		"byteOffset":10752,
		"byteLength":65024,
		"target":34962,
		"byteStride":32
	}],
	"buffers":[{
		"uri":"data:application/octet-stream;base64,",
		"byteLength":4020
	},
	{
		"uri":"data:application/octet-stream;base64,",
		"byteLength":4020
	},
	{
		"uri":"data:application/octet-stream;base64,",
		"byteLength":8064
	},
	{
		"uri":"data:application/octet-stream;base64,",
		"byteLength":75776
	}],
	"materials":[{
		"pbrMetallicRoughness":{
			"baseColorFactor":[1,
			1,
			1,
			1],
			"metallicFactor":1,
			"roughnessFactor":1
		},
		"emissiveFactor":[0,
		0,
		0],
		"alphaMode":"OPAQUE",
		"doubleSided":true,
		"name":""
	},
	{
		"pbrMetallicRoughness":{
			"baseColorFactor":[1,
			1,
			1,
			1],
			"metallicFactor":1,
			"roughnessFactor":1
		},
		"emissiveFactor":[0,
		0,
		0],
		"alphaMode":"OPAQUE",
		"doubleSided":true,
		"name":""
	},
	{
		"pbrMetallicRoughness":{
			"baseColorFactor":[1,
			1,
			1,
			1],
			"metallicFactor":1,
			"roughnessFactor":1
		},
		"emissiveFactor":[0,
		0,
		0],
		"alphaMode":"OPAQUE",
		"doubleSided":true,
		"name":""
	},
	{
		"pbrMetallicRoughness":{
			"baseColorFactor":[0.315,
			0.656,
			0.9,
			1],
			"metallicFactor":0,
			"roughnessFactor":0.5
		},
		"emissiveFactor":[0,
		0,
		0],
		"alphaMode":"OPAQUE",
		"doubleSided":true,
		"name":"材质"
	}]
}