{
	"asset":{
		"version":"2.0",
		"generator":"Created using the official Cinema 4D glTF Exporter 1.000x284978"
	},
	"scenes":[{
		"nodes":[0]
	}],
	"nodes":[{
		"name":"空白",
		"translation":[0,
		0,
		0],
		"rotation":[0.706,
		0.048,
		0.048,
		-0.706],
		"scale":[1,
		1,
		-1],
		"children":[1,
		2,
		3,
		4]
	},
	{
		"name":"celling",
		"translation":[1163.995,
		1447.122,
		3.143],
		"rotation":[0,
		0,
		0,
		-1],
		"scale":[1,
		1,
		1],
		"mesh":0
	},
	{
		"name":"floor",
		"translation":[1163.995,
		1447.122,
		-176.231],
		"rotation":[0,
		0,
		0,
		-1],
		"scale":[1,
		1,
		1],
		"mesh":1
	},
	{
		"name":"slide",
		"translation":[3769.007,
		980.016,
		37.816],
		"rotation":[0,
		0,
		0,
		-1],
		"scale":[1,
		1,
		1],
		"mesh":2
	},
	{
		"name":"scan",
		"translation":[-46192.156,
		28649.975,
		9.252],
		"rotation":[0,
		0,
		0,
		-1],
		"scale":[1,
		1,
		1],
		"mesh":3
	}],
	"meshes":[{
		"primitives":[{
			"attributes":{
				"POSITION":1
			},
			"indices":0,
			"material":0
		}]
	},
	{
		"primitives":[{
			"attributes":{
				"POSITION":3,
				"NORMAL":4,
				"TEXCOORD_0":5
			},
			"indices":2,
			"material":1
		}]
	},
	{
		"primitives":[{
			"attributes":{
				"POSITION":7
			},
			"indices":6,
			"material":2
		}]
	},
	{
		"primitives":[{
			"attributes":{
				"POSITION":9,
				"TEXCOORD_0":10
			},
			"indices":8,
			"material":3
		}]
	}],
	"accessors":[{
		"bufferView":0,
		"componentType":5123,
		"type":"SCALAR",
		"count":477,
		"byteOffset":0,
		"min":[0],
		"max":[160]
	},
	{
		"bufferView":1,
		"componentType":5126,
		"type":"VEC3",
		"count":161,
		"byteOffset":0,
		"min":[-5908.95,
		-4784.552,
		0],
		"max":[5908.95,
		4784.552,
		0]
	},
	{
		"bufferView":2,
		"componentType":5123,
		"type":"SCALAR",
		"count":477,
		"byteOffset":0,
		"min":[0],
		"max":[160]
	},
	{
		"bufferView":3,
		"componentType":5126,
		"type":"VEC3",
		"count":161,
		"byteOffset":0,
		"min":[-5908.95,
		-4784.552,
		300],
		"max":[5908.95,
		4784.552,
		300]
	},
	{
		"bufferView":3,
		"componentType":5126,
		"type":"VEC3",
		"count":161,
		"byteOffset":12,
		"min":[0,
		0,
		1],
		"max":[0,
		0,
		1]
	},
	{
		"bufferView":3,
		"componentType":5126,
		"type":"VEC2",
		"count":161,
		"byteOffset":24,
		"min":[0,
		0],
		"max":[1,
		0.81]
	},
	{
		"bufferView":4,
		"componentType":5123,
		"type":"SCALAR",
		"count":966,
		"byteOffset":0,
		"min":[0],
		"max":[321]
	},
	{
		"bufferView":5,
		"componentType":5126,
		"type":"VEC3",
		"count":322,
		"byteOffset":0,
		"min":[-8513.962,
		-4317.446,
		-27.965],
		"max":[3303.938,
		5251.659,
		83.896]
	},
	{
		"bufferView":6,
		"componentType":5123,
		"type":"SCALAR",
		"count":3864,
		"byteOffset":0,
		"min":[0],
		"max":[809]
	},
	{
		"bufferView":7,
		"componentType":5126,
		"type":"VEC3",
		"count":810,
		"byteOffset":0,
		"min":[41302.574,
		-32028.516,
		-40.861],
		"max":[53317.477,
		-22377.438,
		40.861]
	},
	{
		"bufferView":7,
		"componentType":5126,
		"type":"VEC2",
		"count":810,
		"byteOffset":12,
		"min":[0,
		0],
		"max":[1,
		1]
	}],
	"bufferViews":[{
		"buffer":0,
		"byteOffset":0,
		"byteLength":954,
		"target":34963
	},
	{
		"buffer":0,
		"byteOffset":956,
		"byteLength":1932,
		"target":34962
	},
	{
		"buffer":1,
		"byteOffset":0,
		"byteLength":954,
		"target":34963
	},
	{
		"buffer":1,
		"byteOffset":956,
		"byteLength":5152,
		"target":34962,
		"byteStride":32
	},
	{
		"buffer":2,
		"byteOffset":0,
		"byteLength":1932,
		"target":34963
	},
	{
		"buffer":2,
		"byteOffset":1932,
		"byteLength":3864,
		"target":34962
	},
	{
		"buffer":3,
		"byteOffset":0,
		"byteLength":7728,
		"target":34963
	},
	{
		"buffer":3,
		"byteOffset":7728,
		"byteLength":16200,
		"target":34962,
		"byteStride":20
	}],
	"buffers":[{
		"uri":"data:application/octet-stream;base64,",
		"byteLength":2888
	},
	{
		"uri":"data:application/octet-stream;base64,",
		"byteLength":6108
	},
	{
		"uri":"data:application/octet-stream;base64,",
		"byteLength":5796
	},
	{
		"uri":"data:application/octet-stream;base64,",
		"byteLength":23928
	}],
	"materials":[{
		"pbrMetallicRoughness":{
			"baseColorFactor":[1,
			1,
			1,
			1],
			"metallicFactor":1,
			"roughnessFactor":1
		},
		"emissiveFactor":[0,
		0,
		0],
		"alphaMode":"OPAQUE",
		"doubleSided":true,
		"name":""
	},
	{
		"pbrMetallicRoughness":{
			"baseColorFactor":[1,
			1,
			1,
			1],
			"metallicFactor":1,
			"roughnessFactor":1
		},
		"emissiveFactor":[0,
		0,
		0],
		"alphaMode":"OPAQUE",
		"doubleSided":true,
		"name":""
	},
	{
		"pbrMetallicRoughness":{
			"baseColorFactor":[1,
			1,
			1,
			1],
			"metallicFactor":1,
			"roughnessFactor":1
		},
		"emissiveFactor":[0,
		0,
		0],
		"alphaMode":"OPAQUE",
		"doubleSided":true,
		"name":""
	},
	{
		"pbrMetallicRoughness":{
			"baseColorFactor":[0.315,
			0.656,
			0.9,
			1],
			"metallicFactor":0,
			"roughnessFactor":0.5
		},
		"emissiveFactor":[0,
		0,
		0],
		"alphaMode":"OPAQUE",
		"doubleSided":true,
		"name":"材质"
	}]
}