{
	"asset":{
		"version":"2.0",
		"generator":"Created using the official Cinema 4D glTF Exporter 1.000x284978"
	},
	"scenes":[{
		"nodes":[0]
	}],
	"nodes":[{
		"name":"空白",
		"translation":[0,
		0,
		0],
		"rotation":[0.706,
		0.048,
		0.048,
		-0.706],
		"scale":[1,
		1,
		-1],
		"children":[1,
		2,
		3,
		4]
	},
	{
		"name":"celling",
		"translation":[-2107.863,
		-680.067,
		7.215],
		"rotation":[0,
		0,
		0,
		-1],
		"scale":[1,
		1,
		1],
		"mesh":0
	},
	{
		"name":"floor",
		"translation":[-1120.834,
		-36.254,
		-284.415],
		"rotation":[0,
		0,
		0,
		-1],
		"scale":[1,
		1,
		1],
		"mesh":1
	},
	{
		"name":"slide",
		"translation":[-2107.863,
		-680.067,
		35.023],
		"rotation":[0,
		0,
		0,
		-1],
		"scale":[1,
		1,
		1],
		"mesh":2
	},
	{
		"name":"scan",
		"translation":[-62161.582,
		32950.559,
		9.793],
		"rotation":[0,
		0,
		0,
		-1],
		"scale":[1,
		1,
		1],
		"mesh":3
	}],
	"meshes":[{
		"primitives":[{
			"attributes":{
				"POSITION":1
			},
			"indices":0,
			"material":0
		}]
	},
	{
		"primitives":[{
			"attributes":{
				"POSITION":3
			},
			"indices":2,
			"material":1
		}]
	},
	{
		"primitives":[{
			"attributes":{
				"POSITION":5
			},
			"indices":4,
			"material":2
		}]
	},
	{
		"primitives":[{
			"attributes":{
				"POSITION":7,
				"NORMAL":8,
				"TEXCOORD_0":9
			},
			"indices":6,
			"material":3
		}]
	}],
	"accessors":[{
		"bufferView":0,
		"componentType":5123,
		"type":"SCALAR",
		"count":411,
		"byteOffset":0,
		"min":[0],
		"max":[138]
	},
	{
		"bufferView":1,
		"componentType":5126,
		"type":"VEC3",
		"count":139,
		"byteOffset":0,
		"min":[-2522.916,
		-4943.82,
		0],
		"max":[4496.973,
		6231.446,
		0]
	},
	{
		"bufferView":2,
		"componentType":5123,
		"type":"SCALAR",
		"count":411,
		"byteOffset":0,
		"min":[0],
		"max":[138]
	},
	{
		"bufferView":3,
		"componentType":5126,
		"type":"VEC3",
		"count":139,
		"byteOffset":0,
		"min":[-3509.945,
		-5587.633,
		400],
		"max":[3509.945,
		5587.633,
		400]
	},
	{
		"bufferView":4,
		"componentType":5123,
		"type":"SCALAR",
		"count":834,
		"byteOffset":0,
		"min":[0],
		"max":[277]
	},
	{
		"bufferView":5,
		"componentType":5126,
		"type":"VEC3",
		"count":278,
		"byteOffset":0,
		"min":[-2522.916,
		-4943.82,
		-27.476],
		"max":[4496.973,
		6231.446,
		82.427]
	},
	{
		"bufferView":6,
		"componentType":5123,
		"type":"SCALAR",
		"count":3336,
		"byteOffset":0,
		"min":[0],
		"max":[1320]
	},
	{
		"bufferView":7,
		"componentType":5126,
		"type":"VEC3",
		"count":1321,
		"byteOffset":0,
		"min":[57459.133,
		-38760.129,
		-63.431],
		"max":[64614.434,
		-27335.609,
		63.431]
	},
	{
		"bufferView":7,
		"componentType":5126,
		"type":"VEC3",
		"count":1321,
		"byteOffset":12,
		"min":[-1,
		-1,
		-1],
		"max":[1,
		1,
		1]
	},
	{
		"bufferView":7,
		"componentType":5126,
		"type":"VEC2",
		"count":1321,
		"byteOffset":24,
		"min":[0,
		0],
		"max":[1,
		1]
	}],
	"bufferViews":[{
		"buffer":0,
		"byteOffset":0,
		"byteLength":822,
		"target":34963
	},
	{
		"buffer":0,
		"byteOffset":824,
		"byteLength":1668,
		"target":34962
	},
	{
		"buffer":1,
		"byteOffset":0,
		"byteLength":822,
		"target":34963
	},
	{
		"buffer":1,
		"byteOffset":824,
		"byteLength":1668,
		"target":34962
	},
	{
		"buffer":2,
		"byteOffset":0,
		"byteLength":1668,
		"target":34963
	},
	{
		"buffer":2,
		"byteOffset":1668,
		"byteLength":3336,
		"target":34962
	},
	{
		"buffer":3,
		"byteOffset":0,
		"byteLength":6672,
		"target":34963
	},
	{
		"buffer":3,
		"byteOffset":6672,
		"byteLength":42272,
		"target":34962,
		"byteStride":32
	}],
	"buffers":[{
		"uri":"data:application/octet-stream;base64,",
		"byteLength":2492
	},
	{
		"uri":"data:application/octet-stream;base64,",
		"byteLength":2492
	},
	{
		"uri":"data:application/octet-stream;base64,",
		"byteLength":5004
	},
	{
		"uri":"data:application/octet-stream;base64,",
		"byteLength":48944
	}],
	"materials":[{
		"pbrMetallicRoughness":{
			"baseColorFactor":[1,
			1,
			1,
			1],
			"metallicFactor":1,
			"roughnessFactor":1
		},
		"emissiveFactor":[0,
		0,
		0],
		"alphaMode":"OPAQUE",
		"doubleSided":true,
		"name":""
	},
	{
		"pbrMetallicRoughness":{
			"baseColorFactor":[1,
			1,
			1,
			1],
			"metallicFactor":1,
			"roughnessFactor":1
		},
		"emissiveFactor":[0,
		0,
		0],
		"alphaMode":"OPAQUE",
		"doubleSided":true,
		"name":""
	},
	{
		"pbrMetallicRoughness":{
			"baseColorFactor":[1,
			1,
			1,
			1],
			"metallicFactor":1,
			"roughnessFactor":1
		},
		"emissiveFactor":[0,
		0,
		0],
		"alphaMode":"OPAQUE",
		"doubleSided":true,
		"name":""
	},
	{
		"pbrMetallicRoughness":{
			"baseColorFactor":[0.315,
			0.656,
			0.9,
			1],
			"metallicFactor":0,
			"roughnessFactor":0.5
		},
		"emissiveFactor":[0,
		0,
		0],
		"alphaMode":"OPAQUE",
		"doubleSided":true,
		"name":"材质"
	}]
}