{
	"asset":{
		"version":"2.0",
		"generator":"Created using the official Cinema 4D glTF Exporter 1.000x284978"
	},
	"scenes":[{
		"nodes":[0]
	}],
	"nodes":[{
		"name":"空白",
		"translation":[0,
		0,
		0],
		"rotation":[0.706,
		0.048,
		0.048,
		-0.706],
		"scale":[1,
		1,
		-1],
		"children":[1,
		2,
		3,
		4]
	},
	{
		"name":"celling",
		"translation":[-1388.379,
		214.349,
		-3.095],
		"rotation":[0,
		0,
		0,
		-1],
		"scale":[1,
		1,
		1],
		"mesh":0
	},
	{
		"name":"floor",
		"translation":[-1388.379,
		214.349,
		-3.095],
		"rotation":[0,
		0,
		0,
		-1],
		"scale":[1,
		1,
		1],
		"mesh":1
	},
	{
		"name":"slide",
		"translation":[-11869.119,
		5325.688,
		-3.095],
		"rotation":[0,
		0,
		0,
		-1],
		"scale":[1,
		1,
		1],
		"mesh":2
	},
	{
		"name":"scan",
		"translation":[-11869.119,
		5325.688,
		9.284],
		"rotation":[0,
		0,
		0,
		-1],
		"scale":[1,
		1,
		1],
		"mesh":3
	}],
	"meshes":[{
		"primitives":[{
			"attributes":{
				"POSITION":1
			},
			"indices":0,
			"material":0
		}]
	},
	{
		"primitives":[{
			"attributes":{
				"POSITION":3
			},
			"indices":2,
			"material":1
		}]
	},
	{
		"primitives":[{
			"attributes":{
				"POSITION":5
			},
			"indices":4,
			"material":2
		}]
	},
	{
		"primitives":[{
			"attributes":{
				"POSITION":7,
				"NORMAL":8,
				"TEXCOORD_0":9
			},
			"indices":6,
			"material":3
		}]
	}],
	"accessors":[{
		"bufferView":0,
		"componentType":5123,
		"type":"SCALAR",
		"count":8679,
		"byteOffset":0,
		"min":[0],
		"max":[2894]
	},
	{
		"bufferView":1,
		"componentType":5126,
		"type":"VEC3",
		"count":2895,
		"byteOffset":0,
		"min":[-5745.309,
		-4424.775,
		0],
		"max":[5760.901,
		4424.775,
		0]
	},
	{
		"bufferView":2,
		"componentType":5123,
		"type":"SCALAR",
		"count":8679,
		"byteOffset":0,
		"min":[0],
		"max":[2894]
	},
	{
		"bufferView":3,
		"componentType":5126,
		"type":"VEC3",
		"count":2895,
		"byteOffset":0,
		"min":[-5745.309,
		-4424.775,
		300],
		"max":[5760.901,
		4424.775,
		300]
	},
	{
		"bufferView":4,
		"componentType":5123,
		"type":"SCALAR",
		"count":17370,
		"byteOffset":0,
		"min":[0],
		"max":[5789]
	},
	{
		"bufferView":5,
		"componentType":5126,
		"type":"VEC3",
		"count":5790,
		"byteOffset":0,
		"min":[4735.432,
		-9536.113,
		0],
		"max":[16241.643,
		-686.563,
		300]
	},
	{
		"bufferView":6,
		"componentType":5123,
		"type":"SCALAR",
		"count":68208,
		"byteOffset":0,
		"min":[0],
		"max":[27264]
	},
	{
		"bufferView":7,
		"componentType":5126,
		"type":"VEC3",
		"count":27265,
		"byteOffset":0,
		"min":[4727.759,
		-9544.033,
		-7.664],
		"max":[16249.342,
		-678.868,
		7.664]
	},
	{
		"bufferView":7,
		"componentType":5126,
		"type":"VEC3",
		"count":27265,
		"byteOffset":12,
		"min":[-1,
		-1,
		-1],
		"max":[1,
		1,
		1]
	},
	{
		"bufferView":7,
		"componentType":5126,
		"type":"VEC2",
		"count":27265,
		"byteOffset":24,
		"min":[0,
		0],
		"max":[1,
		1]
	}],
	"bufferViews":[{
		"buffer":0,
		"byteOffset":0,
		"byteLength":17358,
		"target":34963
	},
	{
		"buffer":0,
		"byteOffset":17360,
		"byteLength":34740,
		"target":34962
	},
	{
		"buffer":1,
		"byteOffset":0,
		"byteLength":17358,
		"target":34963
	},
	{
		"buffer":1,
		"byteOffset":17360,
		"byteLength":34740,
		"target":34962
	},
	{
		"buffer":2,
		"byteOffset":0,
		"byteLength":34740,
		"target":34963
	},
	{
		"buffer":2,
		"byteOffset":34740,
		"byteLength":69480,
		"target":34962
	},
	{
		"buffer":3,
		"byteOffset":0,
		"byteLength":136416,
		"target":34963
	},
	{
		"buffer":3,
		"byteOffset":136416,
		"byteLength":872480,
		"target":34962,
		"byteStride":32
	}],
	"buffers":[{
		"uri":"data:application/octet-stream;base64,",
		"byteLength":52100
	},
	{
		"uri":"data:application/octet-stream;base64,",
		"byteLength":52100
	},
	{
		"uri":"data:application/octet-stream;base64,",
		"byteLength":104220
	},
	{
		"uri":"data:application/octet-stream;base64,",
		"byteLength":1008896
	}],
	"materials":[{
		"pbrMetallicRoughness":{
			"baseColorFactor":[1,
			1,
			1,
			1],
			"metallicFactor":1,
			"roughnessFactor":1
		},
		"emissiveFactor":[0,
		0,
		0],
		"alphaMode":"OPAQUE",
		"doubleSided":true,
		"name":""
	},
	{
		"pbrMetallicRoughness":{
			"baseColorFactor":[1,
			1,
			1,
			1],
			"metallicFactor":1,
			"roughnessFactor":1
		},
		"emissiveFactor":[0,
		0,
		0],
		"alphaMode":"OPAQUE",
		"doubleSided":true,
		"name":""
	},
	{
		"pbrMetallicRoughness":{
			"baseColorFactor":[1,
			1,
			1,
			1],
			"metallicFactor":1,
			"roughnessFactor":1
		},
		"emissiveFactor":[0,
		0,
		0],
		"alphaMode":"OPAQUE",
		"doubleSided":true,
		"name":""
	},
	{
		"pbrMetallicRoughness":{
			"baseColorFactor":[0.315,
			0.656,
			0.9,
			1],
			"metallicFactor":0,
			"roughnessFactor":0.5
		},
		"emissiveFactor":[0,
		0,
		0],
		"alphaMode":"OPAQUE",
		"doubleSided":true,
		"name":"材质"
	}]
}