{
	"asset":{
		"version":"2.0",
		"generator":"Created using the official Cinema 4D glTF Exporter 1.000x290161"
	},
	"scenes":[{
		"nodes":[0,
		1,
		2,
		3]
	}],
	"nodes":[{
		"name":"扫描.5",
		"translation":[0.0,
		9.535735130310059,
		0.0],
		"rotation":[0.0,
		0.0,
		0.0,
		-1.0],
		"scale":[1.0,
		1.0,
		1.0],
		"mesh":0
	},
	{
		"name":"celling",
		"translation":[-57.22920227050781,
		3.0606465339660646,
		157.00022888183595],
		"rotation":[0.7071067690849304,
		0.0,
		0.0,
		-0.7071067690849304],
		"scale":[1.0,
		1.0,
		1.0],
		"mesh":1
	},
	{
		"name":"floor",
		"translation":[-57.22920227050781,
		3.0606465339660646,
		157.00022888183595],
		"rotation":[0.7071067690849304,
		0.0,
		0.0,
		-0.7071067690849304],
		"scale":[1.0,
		1.0,
		1.0],
		"mesh":2
	},
	{
		"name":"slide",
		"translation":[-229.3340606689453,
		-21.939353942871095,
		163.6375732421875],
		"rotation":[0.7071067690849304,
		0.0,
		0.0,
		-0.7071067690849304],
		"scale":[1.0,
		1.0,
		1.0],
		"mesh":3
	}],
	"meshes":[{
		"primitives":[{
			"attributes":{
				"POSITION":1,
				"NORMAL":2,
				"TEXCOORD_0":3
			},
			"indices":0,
			"material":0
		}]
	},
	{
		"primitives":[{
			"attributes":{
				"POSITION":5,
				"NORMAL":6,
				"TEXCOORD_0":7
			},
			"indices":4,
			"material":1
		}]
	},
	{
		"primitives":[{
			"attributes":{
				"POSITION":9,
				"NORMAL":10,
				"TEXCOORD_0":11
			},
			"indices":8,
			"material":2
		}]
	},
	{
		"primitives":[{
			"attributes":{
				"POSITION":13,
				"NORMAL":14,
				"TEXCOORD_0":15
			},
			"indices":12,
			"material":3
		}]
	}],
	"accessors":[{
		"bufferView":0,
		"type":"SCALAR",
		"componentType":5123,
		"count":8184,
		"byteOffset":0,
		"min":[0],
		"max":[3397]
	},
	{
		"bufferView":1,
		"type":"VEC3",
		"componentType":5126,
		"count":3398,
		"byteOffset":0,
		"min":[-274.3731994628906,
		-7.944432258605957,
		-168.38674926757813],
		"max":[160.05606079101563,
		-5.005744457244873,
		482.4986877441406]
	},
	{
		"bufferView":1,
		"type":"VEC3",
		"componentType":5126,
		"count":3398,
		"byteOffset":12,
		"min":[-1.0,
		-1.0,
		-1.0],
		"max":[1.0,
		1.0,
		1.0]
	},
	{
		"bufferView":1,
		"type":"VEC2",
		"componentType":5126,
		"count":3398,
		"byteOffset":24,
		"min":[0.0,
		0.0],
		"max":[1.0,
		1.0]
	},
	{
		"bufferView":2,
		"type":"SCALAR",
		"componentType":5123,
		"count":1017,
		"byteOffset":0,
		"min":[0],
		"max":[340]
	},
	{
		"bufferView":3,
		"type":"VEC3",
		"componentType":5126,
		"count":341,
		"byteOffset":0,
		"min":[-215.6531982421875,
		-323.59130859375,
		0.0],
		"max":[215.6531982421875,
		323.59130859375,
		0.0]
	},
	{
		"bufferView":3,
		"type":"VEC3",
		"componentType":5126,
		"count":341,
		"byteOffset":12,
		"min":[0.0,
		0.0,
		1.0],
		"max":[0.0,
		0.0,
		1.0]
	},
	{
		"bufferView":3,
		"type":"VEC2",
		"componentType":5126,
		"count":341,
		"byteOffset":24,
		"min":[0.0,
		0.0],
		"max":[0.6664369106292725,
		1.0]
	},
	{
		"bufferView":4,
		"type":"SCALAR",
		"componentType":5123,
		"count":1017,
		"byteOffset":0,
		"min":[0],
		"max":[340]
	},
	{
		"bufferView":5,
		"type":"VEC3",
		"componentType":5126,
		"count":341,
		"byteOffset":0,
		"min":[-215.6531982421875,
		-323.59130859375,
		-50.0],
		"max":[215.6531982421875,
		323.59130859375,
		-50.0]
	},
	{
		"bufferView":5,
		"type":"VEC3",
		"componentType":5126,
		"count":341,
		"byteOffset":12,
		"min":[0.0,
		0.0,
		-1.0],
		"max":[0.0,
		0.0,
		-1.0]
	},
	{
		"bufferView":5,
		"type":"VEC2",
		"componentType":5126,
		"count":341,
		"byteOffset":24,
		"min":[0.0,
		0.0],
		"max":[0.6664369106292725,
		1.0]
	},
	{
		"bufferView":6,
		"type":"SCALAR",
		"componentType":5123,
		"count":2046,
		"byteOffset":0,
		"min":[0],
		"max":[1113]
	},
	{
		"bufferView":7,
		"type":"VEC3",
		"componentType":5126,
		"count":1114,
		"byteOffset":0,
		"min":[-43.548343658447269,
		-316.9539489746094,
		-25.0],
		"max":[387.758056640625,
		330.2286376953125,
		25.0]
	},
	{
		"bufferView":7,
		"type":"VEC3",
		"componentType":5126,
		"count":1114,
		"byteOffset":12,
		"min":[-1.0,
		-1.0,
		0.0],
		"max":[1.0,
		1.0,
		0.0]
	},
	{
		"bufferView":7,
		"type":"VEC2",
		"componentType":5126,
		"count":1114,
		"byteOffset":24,
		"min":[0.0,
		0.0],
		"max":[1.0,
		1.0]
	}],
	"bufferViews":[{
		"buffer":0,
		"byteOffset":0,
		"byteLength":16368,
		"target":34963
	},
	{
		"buffer":0,
		"byteOffset":16368,
		"byteLength":108736,
		"target":34962,
		"byteStride":32
	},
	{
		"buffer":1,
		"byteOffset":0,
		"byteLength":2034,
		"target":34963
	},
	{
		"buffer":1,
		"byteOffset":2036,
		"byteLength":10912,
		"target":34962,
		"byteStride":32
	},
	{
		"buffer":2,
		"byteOffset":0,
		"byteLength":2034,
		"target":34963
	},
	{
		"buffer":2,
		"byteOffset":2036,
		"byteLength":10912,
		"target":34962,
		"byteStride":32
	},
	{
		"buffer":3,
		"byteOffset":0,
		"byteLength":4092,
		"target":34963
	},
	{
		"buffer":3,
		"byteOffset":4092,
		"byteLength":35648,
		"target":34962,
		"byteStride":32
	}],
	"buffers":[{
		"uri":"data:application/octet-stream;base64,",
		"byteLength":125104
	},
	{
		"uri":"data:application/octet-stream;base64,",
		"byteLength":12948
	},
	{
		"uri":"data:application/octet-stream;base64,",
		"byteLength":12948
	},
	{
		"uri":"data:application/octet-stream;base64,",
		"byteLength":39740
	}],
	"materials":[{
		"pbrMetallicRoughness":{
			"baseColorFactor":[0.315,
			0.6562500000000003,
			0.9,
			1.0],
			"metallicFactor":0.0,
			"roughnessFactor":0.5
		},
		"emissiveFactor":[0.0,
		0.0,
		0.0],
		"alphaMode":"OPAQUE",
		"doubleSided":false,
		"name":"材质"
	},
	{
		"pbrMetallicRoughness":{
			"baseColorFactor":[1.0,
			1.0,
			1.0,
			1.0],
			"metallicFactor":1.0,
			"roughnessFactor":1.0
		},
		"emissiveFactor":[0.0,
		0.0,
		0.0],
		"alphaMode":"OPAQUE",
		"doubleSided":false,
		"name":""
	},
	{
		"pbrMetallicRoughness":{
			"baseColorFactor":[1.0,
			1.0,
			1.0,
			1.0],
			"metallicFactor":1.0,
			"roughnessFactor":1.0
		},
		"emissiveFactor":[0.0,
		0.0,
		0.0],
		"alphaMode":"OPAQUE",
		"doubleSided":false,
		"name":""
	},
	{
		"pbrMetallicRoughness":{
			"baseColorFactor":[0.0,
			0.4666666666666668,
			1.0,
			1.0],
			"metallicFactor":0.0,
			"roughnessFactor":0.5
		},
		"emissiveFactor":[0.0,
		0.0,
		0.0],
		"alphaMode":"OPAQUE",
		"doubleSided":false,
		"name":"材质.1"
	}]
}