{
	"asset":{
		"version":"2.0",
		"generator":"Created using the official Cinema 4D glTF Exporter 1.000x290161"
	},
	"scenes":[{
		"nodes":[0,
		1,
		2,
		3]
	}],
	"nodes":[{
		"name":"扫描.4",
		"translation":[0.0,
		9.535735130310059,
		0.0],
		"rotation":[0.0,
		0.0,
		0.0,
		-1.0],
		"scale":[1.0,
		1.0,
		1.0],
		"mesh":0
	},
	{
		"name":"celling",
		"translation":[126.5904312133789,
		4.158376693725586,
		78.66984558105469],
		"rotation":[0.7071067690849304,
		0.0,
		0.0,
		-0.7071067690849304],
		"scale":[1.0,
		1.0,
		1.0],
		"mesh":1
	},
	{
		"name":"floor",
		"translation":[126.5904312133789,
		4.158376693725586,
		78.66984558105469],
		"rotation":[0.7071067690849304,
		0.0,
		0.0,
		-0.7071067690849304],
		"scale":[1.0,
		1.0,
		1.0],
		"mesh":2
	},
	{
		"name":"slide",
		"translation":[122.4671401977539,
		-20.841623306274415,
		59.93462371826172],
		"rotation":[0.7071067690849304,
		0.0,
		0.0,
		-0.7071067690849304],
		"scale":[1.0,
		1.0,
		1.0],
		"mesh":3
	}],
	"meshes":[{
		"primitives":[{
			"attributes":{
				"POSITION":1,
				"NORMAL":2,
				"TEXCOORD_0":3
			},
			"indices":0,
			"material":0
		}]
	},
	{
		"primitives":[{
			"attributes":{
				"POSITION":5,
				"NORMAL":6,
				"TEXCOORD_0":7
			},
			"indices":4,
			"material":1
		}]
	},
	{
		"primitives":[{
			"attributes":{
				"POSITION":9,
				"NORMAL":10,
				"TEXCOORD_0":11
			},
			"indices":8,
			"material":2
		}]
	},
	{
		"primitives":[{
			"attributes":{
				"POSITION":13,
				"NORMAL":14,
				"TEXCOORD_0":15
			},
			"indices":12,
			"material":3
		}]
	}],
	"accessors":[{
		"bufferView":0,
		"type":"SCALAR",
		"componentType":5123,
		"count":1128,
		"byteOffset":0,
		"min":[0],
		"max":[463]
	},
	{
		"bufferView":1,
		"type":"VEC3",
		"componentType":5126,
		"count":464,
		"byteOffset":0,
		"min":[14.877710342407227,
		-6.8467020988464359,
		-12.04150390625],
		"max":[238.92855834960938,
		-3.9080140590667726,
		165.21485900878907]
	},
	{
		"bufferView":1,
		"type":"VEC3",
		"componentType":5126,
		"count":464,
		"byteOffset":12,
		"min":[-0.9999337196350098,
		-1.0,
		-0.9997233152389526],
		"max":[0.9999337196350098,
		1.0,
		0.9997233748435974]
	},
	{
		"bufferView":1,
		"type":"VEC2",
		"componentType":5126,
		"count":464,
		"byteOffset":24,
		"min":[0.0,
		0.0],
		"max":[1.0,
		1.0]
	},
	{
		"bufferView":2,
		"type":"SCALAR",
		"componentType":5123,
		"count":135,
		"byteOffset":0,
		"min":[0],
		"max":[46]
	},
	{
		"bufferView":3,
		"type":"VEC3",
		"componentType":5126,
		"count":47,
		"byteOffset":0,
		"min":[-109.6198501586914,
		-84.75,
		0.0],
		"max":[109.6198501586914,
		84.75,
		0.0]
	},
	{
		"bufferView":3,
		"type":"VEC3",
		"componentType":5126,
		"count":47,
		"byteOffset":12,
		"min":[0.0,
		0.0,
		1.0],
		"max":[0.0,
		0.0,
		1.0]
	},
	{
		"bufferView":3,
		"type":"VEC2",
		"componentType":5126,
		"count":47,
		"byteOffset":24,
		"min":[0.0,
		0.0],
		"max":[1.0,
		0.7731263637542725]
	},
	{
		"bufferView":4,
		"type":"SCALAR",
		"componentType":5123,
		"count":135,
		"byteOffset":0,
		"min":[0],
		"max":[46]
	},
	{
		"bufferView":5,
		"type":"VEC3",
		"componentType":5126,
		"count":47,
		"byteOffset":0,
		"min":[-109.6198501586914,
		-84.75,
		-50.0],
		"max":[109.6198501586914,
		84.75,
		-50.0]
	},
	{
		"bufferView":5,
		"type":"VEC3",
		"componentType":5126,
		"count":47,
		"byteOffset":12,
		"min":[0.0,
		0.0,
		-1.0],
		"max":[0.0,
		0.0,
		-1.0]
	},
	{
		"bufferView":5,
		"type":"VEC2",
		"componentType":5126,
		"count":47,
		"byteOffset":24,
		"min":[0.0,
		0.0],
		"max":[1.0,
		0.7731263637542725]
	},
	{
		"bufferView":6,
		"type":"SCALAR",
		"componentType":5123,
		"count":282,
		"byteOffset":0,
		"min":[0],
		"max":[173]
	},
	{
		"bufferView":7,
		"type":"VEC3",
		"componentType":5126,
		"count":174,
		"byteOffset":0,
		"min":[-105.49655151367188,
		-103.48522186279297,
		-25.0],
		"max":[113.74314880371094,
		66.01477813720703,
		25.0]
	},
	{
		"bufferView":7,
		"type":"VEC3",
		"componentType":5126,
		"count":174,
		"byteOffset":12,
		"min":[-0.9982227683067322,
		-0.9990624189376831,
		0.0],
		"max":[0.999951183795929,
		0.9997233152389526,
		0.0]
	},
	{
		"bufferView":7,
		"type":"VEC2",
		"componentType":5126,
		"count":174,
		"byteOffset":24,
		"min":[0.0,
		0.0],
		"max":[1.0,
		1.0]
	}],
	"bufferViews":[{
		"buffer":0,
		"byteOffset":0,
		"byteLength":2256,
		"target":34963
	},
	{
		"buffer":0,
		"byteOffset":2256,
		"byteLength":14848,
		"target":34962,
		"byteStride":32
	},
	{
		"buffer":1,
		"byteOffset":0,
		"byteLength":270,
		"target":34963
	},
	{
		"buffer":1,
		"byteOffset":272,
		"byteLength":1504,
		"target":34962,
		"byteStride":32
	},
	{
		"buffer":2,
		"byteOffset":0,
		"byteLength":270,
		"target":34963
	},
	{
		"buffer":2,
		"byteOffset":272,
		"byteLength":1504,
		"target":34962,
		"byteStride":32
	},
	{
		"buffer":3,
		"byteOffset":0,
		"byteLength":564,
		"target":34963
	},
	{
		"buffer":3,
		"byteOffset":564,
		"byteLength":5568,
		"target":34962,
		"byteStride":32
	}],
	"buffers":[{
		"uri":"data:application/octet-stream;base64,",
		"byteLength":17104
	},
	{
		"uri":"data:application/octet-stream;base64,",
		"byteLength":1776
	},
	{
		"uri":"data:application/octet-stream;base64,",
		"byteLength":1776
	},
	{
		"uri":"data:application/octet-stream;base64,",
		"byteLength":6132
	}],
	"materials":[{
		"pbrMetallicRoughness":{
			"baseColorFactor":[0.315,
			0.6562500000000003,
			0.9,
			1.0],
			"metallicFactor":0.0,
			"roughnessFactor":0.5
		},
		"emissiveFactor":[0.0,
		0.0,
		0.0],
		"alphaMode":"OPAQUE",
		"doubleSided":false,
		"name":"材质"
	},
	{
		"pbrMetallicRoughness":{
			"baseColorFactor":[1.0,
			1.0,
			1.0,
			1.0],
			"metallicFactor":1.0,
			"roughnessFactor":1.0
		},
		"emissiveFactor":[0.0,
		0.0,
		0.0],
		"alphaMode":"OPAQUE",
		"doubleSided":false,
		"name":""
	},
	{
		"pbrMetallicRoughness":{
			"baseColorFactor":[1.0,
			1.0,
			1.0,
			1.0],
			"metallicFactor":1.0,
			"roughnessFactor":1.0
		},
		"emissiveFactor":[0.0,
		0.0,
		0.0],
		"alphaMode":"OPAQUE",
		"doubleSided":false,
		"name":""
	},
	{
		"pbrMetallicRoughness":{
			"baseColorFactor":[0.0,
			0.4666666666666668,
			1.0,
			1.0],
			"metallicFactor":0.0,
			"roughnessFactor":0.5
		},
		"emissiveFactor":[0.0,
		0.0,
		0.0],
		"alphaMode":"OPAQUE",
		"doubleSided":false,
		"name":"材质.1"
	}]
}