{
	"asset":{
		"version":"2.0",
		"generator":"Created using the official Cinema 4D glTF Exporter 1.000x290161"
	},
	"scenes":[{
		"nodes":[0,
		1,
		2,
		3]
	}],
	"nodes":[{
		"name":"扫描",
		"translation":[0.0,
		3.814862012863159,
		0.0],
		"rotation":[0.0,
		0.0,
		0.0,
		-1.0],
		"scale":[1.0,
		1.0,
		1.0],
		"mesh":0
	},
	{
		"name":"celling",
		"translation":[282.9146423339844,
		-5.991718792397894e-15,
		77.65847778320313],
		"rotation":[0.7071067690849304,
		0.0,
		0.0,
		-0.7071067690849304],
		"scale":[1.0,
		1.0,
		1.0],
		"mesh":1
	},
	{
		"name":"floor",
		"translation":[282.9146423339844,
		-5.991718792397894e-15,
		77.65847778320313],
		"rotation":[0.7071067690849304,
		0.0,
		0.0,
		-0.7071067690849304],
		"scale":[1.0,
		1.0,
		1.0],
		"mesh":2
	},
	{
		"name":"slide",
		"translation":[-659.1604614257813,
		-3.907985046680551e-14,
		618.0286865234375],
		"rotation":[0.7071067690849304,
		0.0,
		0.0,
		-0.7071067690849304],
		"scale":[1.0,
		1.0,
		1.0],
		"mesh":3
	}],
	"meshes":[{
		"primitives":[{
			"attributes":{
				"POSITION":1,
				"NORMAL":2,
				"TEXCOORD_0":3
			},
			"indices":0,
			"material":0
		}]
	},
	{
		"primitives":[{
			"attributes":{
				"POSITION":5,
				"NORMAL":6,
				"TEXCOORD_0":7
			},
			"indices":4,
			"material":1
		}]
	},
	{
		"primitives":[{
			"attributes":{
				"POSITION":9,
				"NORMAL":10,
				"TEXCOORD_0":11
			},
			"indices":8,
			"material":2
		}]
	},
	{
		"primitives":[{
			"attributes":{
				"POSITION":13,
				"NORMAL":14,
				"TEXCOORD_0":15
			},
			"indices":12,
			"material":3
		}]
	}],
	"accessors":[{
		"bufferView":0,
		"type":"SCALAR",
		"componentType":5123,
		"count":12192,
		"byteOffset":0,
		"min":[0],
		"max":[5086]
	},
	{
		"bufferView":1,
		"type":"VEC3",
		"componentType":5126,
		"count":5087,
		"byteOffset":0,
		"min":[-244.5994110107422,
		-1.4693440198898316,
		-327.9147644042969],
		"max":[806.8536376953125,
		1.4693440198898316,
		483.2239074707031]
	},
	{
		"bufferView":1,
		"type":"VEC3",
		"componentType":5126,
		"count":5087,
		"byteOffset":12,
		"min":[-1.0,
		-1.0,
		-1.0],
		"max":[1.0,
		1.0,
		1.0]
	},
	{
		"bufferView":1,
		"type":"VEC2",
		"componentType":5126,
		"count":5087,
		"byteOffset":24,
		"min":[0.0,
		0.0],
		"max":[1.0,
		1.0]
	},
	{
		"bufferView":2,
		"type":"SCALAR",
		"componentType":5123,
		"count":1518,
		"byteOffset":0,
		"min":[0],
		"max":[507]
	},
	{
		"bufferView":3,
		"type":"VEC3",
		"componentType":5126,
		"count":508,
		"byteOffset":0,
		"min":[-526.042724609375,
		-403.58331298828127,
		0.0],
		"max":[521.4166870117188,
		403.58331298828127,
		0.0]
	},
	{
		"bufferView":3,
		"type":"VEC3",
		"componentType":5126,
		"count":508,
		"byteOffset":12,
		"min":[0.0,
		0.0,
		1.0],
		"max":[0.0,
		0.0,
		1.0]
	},
	{
		"bufferView":3,
		"type":"VEC2",
		"componentType":5126,
		"count":508,
		"byteOffset":24,
		"min":[0.0,
		0.0],
		"max":[1.0,
		0.770594596862793]
	},
	{
		"bufferView":4,
		"type":"SCALAR",
		"componentType":5123,
		"count":1518,
		"byteOffset":0,
		"min":[0],
		"max":[507]
	},
	{
		"bufferView":5,
		"type":"VEC3",
		"componentType":5126,
		"count":508,
		"byteOffset":0,
		"min":[-526.042724609375,
		-403.58331298828127,
		-50.0],
		"max":[521.4166870117188,
		403.58331298828127,
		-50.0]
	},
	{
		"bufferView":5,
		"type":"VEC3",
		"componentType":5126,
		"count":508,
		"byteOffset":12,
		"min":[0.0,
		0.0,
		-1.0],
		"max":[0.0,
		0.0,
		-1.0]
	},
	{
		"bufferView":5,
		"type":"VEC2",
		"componentType":5126,
		"count":508,
		"byteOffset":24,
		"min":[0.0,
		0.0],
		"max":[1.0,
		0.770594596862793]
	},
	{
		"bufferView":6,
		"type":"SCALAR",
		"componentType":5123,
		"count":3048,
		"byteOffset":0,
		"min":[0],
		"max":[1495]
	},
	{
		"bufferView":7,
		"type":"VEC3",
		"componentType":5126,
		"count":1496,
		"byteOffset":0,
		"min":[416.03240966796877,
		136.78689575195313,
		-50.0],
		"max":[1463.4918212890626,
		943.9534912109375,
		0.0]
	},
	{
		"bufferView":7,
		"type":"VEC3",
		"componentType":5126,
		"count":1496,
		"byteOffset":12,
		"min":[-1.0,
		-1.0,
		0.0],
		"max":[0.9999970197677612,
		0.999997079372406,
		0.0]
	},
	{
		"bufferView":7,
		"type":"VEC2",
		"componentType":5126,
		"count":1496,
		"byteOffset":24,
		"min":[0.0,
		0.0],
		"max":[1.0,
		1.0]
	}],
	"bufferViews":[{
		"buffer":0,
		"byteOffset":0,
		"byteLength":24384,
		"target":34963
	},
	{
		"buffer":0,
		"byteOffset":24384,
		"byteLength":162784,
		"target":34962,
		"byteStride":32
	},
	{
		"buffer":1,
		"byteOffset":0,
		"byteLength":3036,
		"target":34963
	},
	{
		"buffer":1,
		"byteOffset":3036,
		"byteLength":16256,
		"target":34962,
		"byteStride":32
	},
	{
		"buffer":2,
		"byteOffset":0,
		"byteLength":3036,
		"target":34963
	},
	{
		"buffer":2,
		"byteOffset":3036,
		"byteLength":16256,
		"target":34962,
		"byteStride":32
	},
	{
		"buffer":3,
		"byteOffset":0,
		"byteLength":6096,
		"target":34963
	},
	{
		"buffer":3,
		"byteOffset":6096,
		"byteLength":47872,
		"target":34962,
		"byteStride":32
	}],
	"buffers":[{
		"uri":"data:application/octet-stream;base64,",
		"byteLength":187168
	},
	{
		"uri":"data:application/octet-stream;base64,",
		"byteLength":19292
	},
	{
		"uri":"data:application/octet-stream;base64,",
		"byteLength":19292
	},
	{
		"uri":"data:application/octet-stream;base64,",
		"byteLength":53968
	}],
	"materials":[{
		"pbrMetallicRoughness":{
			"baseColorFactor":[0.315,
			0.6562500000000003,
			0.9,
			1.0],
			"metallicFactor":0.0,
			"roughnessFactor":0.5
		},
		"emissiveFactor":[0.0,
		0.0,
		0.0],
		"alphaMode":"OPAQUE",
		"doubleSided":false,
		"name":"材质"
	},
	{
		"pbrMetallicRoughness":{
			"baseColorFactor":[1.0,
			1.0,
			1.0,
			1.0],
			"metallicFactor":1.0,
			"roughnessFactor":1.0
		},
		"emissiveFactor":[0.0,
		0.0,
		0.0],
		"alphaMode":"OPAQUE",
		"doubleSided":false,
		"name":""
	},
	{
		"pbrMetallicRoughness":{
			"baseColorFactor":[1.0,
			1.0,
			1.0,
			1.0],
			"metallicFactor":1.0,
			"roughnessFactor":1.0
		},
		"emissiveFactor":[0.0,
		0.0,
		0.0],
		"alphaMode":"OPAQUE",
		"doubleSided":false,
		"name":""
	},
	{
		"pbrMetallicRoughness":{
			"baseColorFactor":[0.0,
			0.4666666666666668,
			1.0,
			1.0],
			"metallicFactor":0.0,
			"roughnessFactor":0.5
		},
		"emissiveFactor":[0.0,
		0.0,
		0.0],
		"alphaMode":"OPAQUE",
		"doubleSided":false,
		"name":"材质.1"
	}]
}