{
	"asset":{
		"version":"2.0",
		"generator":"Created using the official Cinema 4D glTF Exporter 1.000x284978"
	},
	"scenes":[{
		"nodes":[0]
	}],
	"nodes":[{
		"name":"空白",
		"translation":[0,
		0,
		0],
		"rotation":[0.706,
		0.048,
		0.048,
		-0.706],
		"scale":[1,
		1,
		-1],
		"children":[1,
		2,
		3,
		4]
	},
	{
		"name":"celling",
		"translation":[380.442,
		2121.087,
		-22.469],
		"rotation":[0,
		0,
		0,
		-1],
		"scale":[1,
		1,
		1],
		"mesh":0
	},
	{
		"name":"floor",
		"translation":[380.442,
		2121.087,
		-22.469],
		"rotation":[0,
		0,
		0,
		-1],
		"scale":[1,
		1,
		1],
		"mesh":1
	},
	{
		"name":"slide",
		"translation":[-532.045,
		-1408.263,
		77.531],
		"rotation":[0,
		0,
		0,
		-1],
		"scale":[1,
		1,
		1],
		"mesh":2
	},
	{
		"name":"scan",
		"translation":[-11664.38,
		12342.101,
		-32.594],
		"rotation":[0,
		0,
		0,
		-1],
		"scale":[1,
		1,
		1],
		"mesh":3
	}],
	"meshes":[{
		"primitives":[{
			"attributes":{
				"POSITION":1
			},
			"indices":0,
			"material":0
		}]
	},
	{
		"primitives":[{
			"attributes":{
				"POSITION":3
			},
			"indices":2,
			"material":1
		}]
	},
	{
		"primitives":[{
			"attributes":{
				"POSITION":5,
				"NORMAL":6,
				"TEXCOORD_0":7
			},
			"indices":4,
			"material":2
		}]
	},
	{
		"primitives":[{
			"attributes":{
				"POSITION":9,
				"NORMAL":10,
				"TEXCOORD_0":11
			},
			"indices":8,
			"material":3
		}]
	}],
	"accessors":[{
		"bufferView":0,
		"componentType":5123,
		"type":"SCALAR",
		"count":5271,
		"byteOffset":0,
		"min":[0],
		"max":[1758]
	},
	{
		"bufferView":1,
		"componentType":5126,
		"type":"VEC3",
		"count":1759,
		"byteOffset":0,
		"min":[-4507.85,
		-6737.176,
		0],
		"max":[4507.85,
		6719.438,
		0]
	},
	{
		"bufferView":2,
		"componentType":5123,
		"type":"SCALAR",
		"count":5271,
		"byteOffset":0,
		"min":[0],
		"max":[1758]
	},
	{
		"bufferView":3,
		"componentType":5126,
		"type":"VEC3",
		"count":1759,
		"byteOffset":0,
		"min":[-4507.85,
		-6737.176,
		400],
		"max":[4507.85,
		6719.438,
		400]
	},
	{
		"bufferView":4,
		"componentType":5123,
		"type":"SCALAR",
		"count":10554,
		"byteOffset":0,
		"min":[0],
		"max":[3779]
	},
	{
		"bufferView":5,
		"componentType":5126,
		"type":"VEC3",
		"count":3780,
		"byteOffset":0,
		"min":[-3595.362,
		-3207.825,
		-100],
		"max":[5420.336,
		10248.788,
		300]
	},
	{
		"bufferView":5,
		"componentType":5126,
		"type":"VEC3",
		"count":3780,
		"byteOffset":12,
		"min":[-1,
		-1,
		0],
		"max":[1,
		1,
		0]
	},
	{
		"bufferView":5,
		"componentType":5126,
		"type":"VEC2",
		"count":3780,
		"byteOffset":24,
		"min":[0,
		0],
		"max":[1,
		1]
	},
	{
		"bufferView":6,
		"componentType":5123,
		"type":"SCALAR",
		"count":41184,
		"byteOffset":0,
		"min":[0],
		"max":[16577]
	},
	{
		"bufferView":7,
		"componentType":5126,
		"type":"VEC3",
		"count":16578,
		"byteOffset":0,
		"min":[7523.223,
		-16972.006,
		-20.922],
		"max":[16567.688,
		-3485.024,
		15.011]
	},
	{
		"bufferView":7,
		"componentType":5126,
		"type":"VEC3",
		"count":16578,
		"byteOffset":12,
		"min":[-1,
		-1,
		-1],
		"max":[1,
		1,
		1]
	},
	{
		"bufferView":7,
		"componentType":5126,
		"type":"VEC2",
		"count":16578,
		"byteOffset":24,
		"min":[0,
		0],
		"max":[1,
		1]
	}],
	"bufferViews":[{
		"buffer":0,
		"byteOffset":0,
		"byteLength":10542,
		"target":34963
	},
	{
		"buffer":0,
		"byteOffset":10544,
		"byteLength":21108,
		"target":34962
	},
	{
		"buffer":1,
		"byteOffset":0,
		"byteLength":10542,
		"target":34963
	},
	{
		"buffer":1,
		"byteOffset":10544,
		"byteLength":21108,
		"target":34962
	},
	{
		"buffer":2,
		"byteOffset":0,
		"byteLength":21108,
		"target":34963
	},
	{
		"buffer":2,
		"byteOffset":21108,
		"byteLength":120960,
		"target":34962,
		"byteStride":32
	},
	{
		"buffer":3,
		"byteOffset":0,
		"byteLength":82368,
		"target":34963
	},
	{
		"buffer":3,
		"byteOffset":82368,
		"byteLength":530496,
		"target":34962,
		"byteStride":32
	}],
	"buffers":[{
		"uri":"data:application/octet-stream;base64,",
		"byteLength":31652
	},
	{
		"uri":"data:application/octet-stream;base64,",
		"byteLength":31652
	},
	{
		"uri":"data:application/octet-stream;base64,",
		"byteLength":142068
	},
	{
		"uri":"data:application/octet-stream;base64,",
		"byteLength":612864
	}],
	"materials":[{
		"pbrMetallicRoughness":{
			"baseColorFactor":[1,
			1,
			1,
			1],
			"metallicFactor":1,
			"roughnessFactor":1
		},
		"emissiveFactor":[0,
		0,
		0],
		"alphaMode":"OPAQUE",
		"doubleSided":true,
		"name":""
	},
	{
		"pbrMetallicRoughness":{
			"baseColorFactor":[1,
			1,
			1,
			1],
			"metallicFactor":1,
			"roughnessFactor":1
		},
		"emissiveFactor":[0,
		0,
		0],
		"alphaMode":"OPAQUE",
		"doubleSided":true,
		"name":""
	},
	{
		"pbrMetallicRoughness":{
			"baseColorFactor":[0,
			0.467,
			1,
			1],
			"metallicFactor":0,
			"roughnessFactor":0.5
		},
		"emissiveFactor":[0,
		0,
		0],
		"alphaMode":"OPAQUE",
		"doubleSided":true,
		"name":"材质.1"
	},
	{
		"pbrMetallicRoughness":{
			"baseColorFactor":[0.315,
			0.656,
			0.9,
			1],
			"metallicFactor":0,
			"roughnessFactor":0.5
		},
		"emissiveFactor":[0,
		0,
		0],
		"alphaMode":"OPAQUE",
		"doubleSided":true,
		"name":"材质"
	}]
}