{
	"asset":{
		"version":"2.0",
		"generator":"Created using the official Cinema 4D glTF Exporter 1.000x290161"
	},
	"scenes":[{
		"nodes":[0,
		1,
		2,
		3]
	}],
	"nodes":[{
		"name":"扫描.3",
		"translation":[0.0,
		9.535735130310059,
		0.0],
		"rotation":[0.0,
		0.0,
		0.0,
		-1.0],
		"scale":[1.0,
		1.0,
		1.0],
		"mesh":0
	},
	{
		"name":"celling",
		"translation":[21.78571128845215,
		0.8255757093429565,
		-48.51871109008789],
		"rotation":[0.7071067690849304,
		0.0,
		0.0,
		-0.7071067690849304],
		"scale":[1.0,
		1.0,
		1.0],
		"mesh":1
	},
	{
		"name":"floor",
		"translation":[21.78571128845215,
		0.8255757093429565,
		-48.51871109008789],
		"rotation":[0.7071067690849304,
		0.0,
		0.0,
		-0.7071067690849304],
		"scale":[1.0,
		1.0,
		1.0],
		"mesh":2
	},
	{
		"name":"slide",
		"translation":[-76.1687240600586,
		-24.17442512512207,
		-88.01404571533203],
		"rotation":[0.7071067690849304,
		0.0,
		0.0,
		-0.7071067690849304],
		"scale":[1.0,
		1.0,
		1.0],
		"mesh":3
	}],
	"meshes":[{
		"primitives":[{
			"attributes":{
				"POSITION":1,
				"NORMAL":2,
				"TEXCOORD_0":3
			},
			"indices":0,
			"material":0
		}]
	},
	{
		"primitives":[{
			"attributes":{
				"POSITION":5,
				"NORMAL":6,
				"TEXCOORD_0":7
			},
			"indices":4,
			"material":1
		}]
	},
	{
		"primitives":[{
			"attributes":{
				"POSITION":9,
				"NORMAL":10,
				"TEXCOORD_0":11
			},
			"indices":8,
			"material":2
		}]
	},
	{
		"primitives":[{
			"attributes":{
				"POSITION":13,
				"NORMAL":14,
				"TEXCOORD_0":15
			},
			"indices":12,
			"material":3
		}]
	}],
	"accessors":[{
		"bufferView":0,
		"type":"SCALAR",
		"componentType":5123,
		"count":2472,
		"byteOffset":0,
		"min":[0],
		"max":[1123]
	},
	{
		"bufferView":1,
		"type":"VEC3",
		"componentType":5126,
		"count":1124,
		"byteOffset":0,
		"min":[-32.10806655883789,
		-7.893941879272461,
		-135.7252655029297],
		"max":[75.54793548583985,
		-4.955254077911377,
		38.78087615966797]
	},
	{
		"bufferView":1,
		"type":"VEC3",
		"componentType":5126,
		"count":1124,
		"byteOffset":12,
		"min":[-0.9999964237213135,
		-1.0,
		-0.9999698400497437],
		"max":[0.9999964833259583,
		1.0,
		0.9999698400497437]
	},
	{
		"bufferView":1,
		"type":"VEC2",
		"componentType":5126,
		"count":1124,
		"byteOffset":24,
		"min":[0.0,
		0.0],
		"max":[1.0,
		1.0]
	},
	{
		"bufferView":2,
		"type":"SCALAR",
		"componentType":5123,
		"count":303,
		"byteOffset":0,
		"min":[0],
		"max":[102]
	},
	{
		"bufferView":3,
		"type":"VEC3",
		"componentType":5126,
		"count":103,
		"byteOffset":0,
		"min":[-52.290000915527347,
		-84.98594665527344,
		0.0],
		"max":[52.290000915527347,
		84.98594665527344,
		0.0]
	},
	{
		"bufferView":3,
		"type":"VEC3",
		"componentType":5126,
		"count":103,
		"byteOffset":12,
		"min":[0.0,
		0.0,
		1.0],
		"max":[0.0,
		0.0,
		1.0]
	},
	{
		"bufferView":3,
		"type":"VEC2",
		"componentType":5126,
		"count":103,
		"byteOffset":24,
		"min":[0.0,
		0.0],
		"max":[0.6152781248092651,
		1.0]
	},
	{
		"bufferView":4,
		"type":"SCALAR",
		"componentType":5123,
		"count":303,
		"byteOffset":0,
		"min":[0],
		"max":[102]
	},
	{
		"bufferView":5,
		"type":"VEC3",
		"componentType":5126,
		"count":103,
		"byteOffset":0,
		"min":[-52.290000915527347,
		-84.98594665527344,
		-50.0],
		"max":[52.290000915527347,
		84.98594665527344,
		-50.0]
	},
	{
		"bufferView":5,
		"type":"VEC3",
		"componentType":5126,
		"count":103,
		"byteOffset":12,
		"min":[0.0,
		0.0,
		-1.0],
		"max":[0.0,
		0.0,
		-1.0]
	},
	{
		"bufferView":5,
		"type":"VEC2",
		"componentType":5126,
		"count":103,
		"byteOffset":24,
		"min":[0.0,
		0.0],
		"max":[1.0,
		0.9349840879440308]
	},
	{
		"bufferView":6,
		"type":"SCALAR",
		"componentType":5123,
		"count":618,
		"byteOffset":0,
		"min":[0],
		"max":[313]
	},
	{
		"bufferView":7,
		"type":"VEC3",
		"componentType":5126,
		"count":314,
		"byteOffset":0,
		"min":[45.66443634033203,
		-124.48128509521485,
		-25.0],
		"max":[150.2444305419922,
		45.49061584472656,
		25.0]
	},
	{
		"bufferView":7,
		"type":"VEC3",
		"componentType":5126,
		"count":314,
		"byteOffset":12,
		"min":[-0.9999963641166687,
		-0.9998762011528015,
		0.0],
		"max":[0.9997813105583191,
		0.9999698400497437,
		0.0]
	},
	{
		"bufferView":7,
		"type":"VEC2",
		"componentType":5126,
		"count":314,
		"byteOffset":24,
		"min":[0.0,
		0.0],
		"max":[1.0,
		1.0]
	}],
	"bufferViews":[{
		"buffer":0,
		"byteOffset":0,
		"byteLength":4944,
		"target":34963
	},
	{
		"buffer":0,
		"byteOffset":4944,
		"byteLength":35968,
		"target":34962,
		"byteStride":32
	},
	{
		"buffer":1,
		"byteOffset":0,
		"byteLength":606,
		"target":34963
	},
	{
		"buffer":1,
		"byteOffset":608,
		"byteLength":3296,
		"target":34962,
		"byteStride":32
	},
	{
		"buffer":2,
		"byteOffset":0,
		"byteLength":606,
		"target":34963
	},
	{
		"buffer":2,
		"byteOffset":608,
		"byteLength":3296,
		"target":34962,
		"byteStride":32
	},
	{
		"buffer":3,
		"byteOffset":0,
		"byteLength":1236,
		"target":34963
	},
	{
		"buffer":3,
		"byteOffset":1236,
		"byteLength":10048,
		"target":34962,
		"byteStride":32
	}],
	"buffers":[{
		"uri":"data:application/octet-stream;base64,",
		"byteLength":40912
	},
	{
		"uri":"data:application/octet-stream;base64,",
		"byteLength":3904
	},
	{
		"uri":"data:application/octet-stream;base64,",
		"byteLength":3904
	},
	{
		"uri":"data:application/octet-stream;base64,",
		"byteLength":11284
	}],
	"materials":[{
		"pbrMetallicRoughness":{
			"baseColorFactor":[0.315,
			0.6562500000000003,
			0.9,
			1.0],
			"metallicFactor":0.0,
			"roughnessFactor":0.5
		},
		"emissiveFactor":[0.0,
		0.0,
		0.0],
		"alphaMode":"OPAQUE",
		"doubleSided":false,
		"name":"材质"
	},
	{
		"pbrMetallicRoughness":{
			"baseColorFactor":[1.0,
			1.0,
			1.0,
			1.0],
			"metallicFactor":1.0,
			"roughnessFactor":1.0
		},
		"emissiveFactor":[0.0,
		0.0,
		0.0],
		"alphaMode":"OPAQUE",
		"doubleSided":false,
		"name":""
	},
	{
		"pbrMetallicRoughness":{
			"baseColorFactor":[1.0,
			1.0,
			1.0,
			1.0],
			"metallicFactor":1.0,
			"roughnessFactor":1.0
		},
		"emissiveFactor":[0.0,
		0.0,
		0.0],
		"alphaMode":"OPAQUE",
		"doubleSided":false,
		"name":""
	},
	{
		"pbrMetallicRoughness":{
			"baseColorFactor":[0.0,
			0.4666666666666668,
			1.0,
			1.0],
			"metallicFactor":0.0,
			"roughnessFactor":0.5
		},
		"emissiveFactor":[0.0,
		0.0,
		0.0],
		"alphaMode":"OPAQUE",
		"doubleSided":false,
		"name":"材质.1"
	}]
}