{
	"asset":{
		"version":"2.0",
		"generator":"Created using the official Cinema 4D glTF Exporter 1.000x290161"
	},
	"scenes":[{
		"nodes":[0,
		1,
		2,
		3]
	}],
	"nodes":[{
		"name":"扫描.2",
		"translation":[0.0,
		7.250173568725586,
		0.0],
		"rotation":[0.0,
		0.0,
		0.0,
		-1.0],
		"scale":[1.0,
		1.0,
		1.0],
		"mesh":0
	},
	{
		"name":"celling",
		"translation":[182.7099151611328,
		-0.0797286406159401,
		-23.418249130249025],
		"rotation":[0.7071067690849304,
		0.0,
		0.0,
		-0.7071067690849304],
		"scale":[1.0,
		1.0,
		1.0],
		"mesh":1
	},
	{
		"name":"floor",
		"translation":[182.7099151611328,
		-0.0797286406159401,
		-23.418249130249025],
		"rotation":[0.7071067690849304,
		0.0,
		0.0,
		-0.7071067690849304],
		"scale":[1.0,
		1.0,
		1.0],
		"mesh":2
	},
	{
		"name":"slide",
		"translation":[171.54367065429688,
		-25.079729080200197,
		-23.26923370361328],
		"rotation":[0.7071067690849304,
		0.0,
		0.0,
		-0.7071067690849304],
		"scale":[1.0,
		1.0,
		1.0],
		"mesh":3
	}],
	"meshes":[{
		"primitives":[{
			"attributes":{
				"POSITION":1,
				"NORMAL":2,
				"TEXCOORD_0":3
			},
			"indices":0,
			"material":0
		}]
	},
	{
		"primitives":[{
			"attributes":{
				"POSITION":5,
				"NORMAL":6,
				"TEXCOORD_0":7
			},
			"indices":4,
			"material":1
		}]
	},
	{
		"primitives":[{
			"attributes":{
				"POSITION":9,
				"NORMAL":10,
				"TEXCOORD_0":11
			},
			"indices":8,
			"material":2
		}]
	},
	{
		"primitives":[{
			"attributes":{
				"POSITION":13,
				"NORMAL":14,
				"TEXCOORD_0":15
			},
			"indices":12,
			"material":3
		}]
	}],
	"accessors":[{
		"bufferView":0,
		"type":"SCALAR",
		"componentType":5123,
		"count":1008,
		"byteOffset":0,
		"min":[0],
		"max":[413]
	},
	{
		"bufferView":1,
		"type":"VEC3",
		"componentType":5126,
		"count":414,
		"byteOffset":0,
		"min":[57.054847717285159,
		-5.363934516906738,
		-108.13460540771485],
		"max":[308.52935791015627,
		-2.4252467155456545,
		60.12176513671875]
	},
	{
		"bufferView":1,
		"type":"VEC3",
		"componentType":5126,
		"count":414,
		"byteOffset":12,
		"min":[-0.9993139505386353,
		-1.0,
		-0.9999581575393677],
		"max":[0.9993139505386353,
		1.0,
		0.999957799911499]
	},
	{
		"bufferView":1,
		"type":"VEC2",
		"componentType":5126,
		"count":414,
		"byteOffset":24,
		"min":[0.0,
		0.0],
		"max":[1.0,
		1.0]
	},
	{
		"bufferView":2,
		"type":"SCALAR",
		"componentType":5123,
		"count":120,
		"byteOffset":0,
		"min":[0],
		"max":[41]
	},
	{
		"bufferView":3,
		"type":"VEC3",
		"componentType":5126,
		"count":42,
		"byteOffset":0,
		"min":[-123.46395111083985,
		-81.48429870605469,
		0.0],
		"max":[123.46395111083985,
		81.48429870605469,
		0.0]
	},
	{
		"bufferView":3,
		"type":"VEC3",
		"componentType":5126,
		"count":42,
		"byteOffset":12,
		"min":[0.0,
		0.0,
		1.0],
		"max":[0.0,
		0.0,
		1.0]
	},
	{
		"bufferView":3,
		"type":"VEC2",
		"componentType":5126,
		"count":42,
		"byteOffset":24,
		"min":[0.0,
		0.0],
		"max":[1.0,
		0.6599844694137573]
	},
	{
		"bufferView":4,
		"type":"SCALAR",
		"componentType":5123,
		"count":120,
		"byteOffset":0,
		"min":[0],
		"max":[41]
	},
	{
		"bufferView":5,
		"type":"VEC3",
		"componentType":5126,
		"count":42,
		"byteOffset":0,
		"min":[-123.46395111083985,
		-81.48429870605469,
		-50.0],
		"max":[123.46395111083985,
		81.48429870605469,
		-50.0]
	},
	{
		"bufferView":5,
		"type":"VEC3",
		"componentType":5126,
		"count":42,
		"byteOffset":12,
		"min":[0.0,
		0.0,
		-1.0],
		"max":[0.0,
		0.0,
		-1.0]
	},
	{
		"bufferView":5,
		"type":"VEC2",
		"componentType":5126,
		"count":42,
		"byteOffset":24,
		"min":[0.0,
		0.0],
		"max":[1.0,
		0.6599844694137573]
	},
	{
		"bufferView":6,
		"type":"SCALAR",
		"componentType":5123,
		"count":252,
		"byteOffset":0,
		"min":[0],
		"max":[149]
	},
	{
		"bufferView":7,
		"type":"VEC3",
		"componentType":5126,
		"count":150,
		"byteOffset":0,
		"min":[-112.2977066040039,
		-81.33528137207031,
		-25.0],
		"max":[134.63018798828126,
		81.63331604003906,
		25.0]
	},
	{
		"bufferView":7,
		"type":"VEC3",
		"componentType":5126,
		"count":150,
		"byteOffset":12,
		"min":[-0.9929878115653992,
		-0.9997230768203735,
		0.0],
		"max":[0.9993139505386353,
		0.9999406933784485,
		0.0]
	},
	{
		"bufferView":7,
		"type":"VEC2",
		"componentType":5126,
		"count":150,
		"byteOffset":24,
		"min":[0.0,
		0.0],
		"max":[1.0,
		1.0]
	}],
	"bufferViews":[{
		"buffer":0,
		"byteOffset":0,
		"byteLength":2016,
		"target":34963
	},
	{
		"buffer":0,
		"byteOffset":2016,
		"byteLength":13248,
		"target":34962,
		"byteStride":32
	},
	{
		"buffer":1,
		"byteOffset":0,
		"byteLength":240,
		"target":34963
	},
	{
		"buffer":1,
		"byteOffset":240,
		"byteLength":1344,
		"target":34962,
		"byteStride":32
	},
	{
		"buffer":2,
		"byteOffset":0,
		"byteLength":240,
		"target":34963
	},
	{
		"buffer":2,
		"byteOffset":240,
		"byteLength":1344,
		"target":34962,
		"byteStride":32
	},
	{
		"buffer":3,
		"byteOffset":0,
		"byteLength":504,
		"target":34963
	},
	{
		"buffer":3,
		"byteOffset":504,
		"byteLength":4800,
		"target":34962,
		"byteStride":32
	}],
	"buffers":[{
		"uri":"data:application/octet-stream;base64,",
		"byteLength":15264
	},
	{
		"uri":"data:application/octet-stream;base64,",
		"byteLength":1584
	},
	{
		"uri":"data:application/octet-stream;base64,",
		"byteLength":1584
	},
	{
		"uri":"data:application/octet-stream;base64,",
		"byteLength":5304
	}],
	"materials":[{
		"pbrMetallicRoughness":{
			"baseColorFactor":[0.315,
			0.6562500000000003,
			0.9,
			1.0],
			"metallicFactor":0.0,
			"roughnessFactor":0.5
		},
		"emissiveFactor":[0.0,
		0.0,
		0.0],
		"alphaMode":"OPAQUE",
		"doubleSided":false,
		"name":"材质"
	},
	{
		"pbrMetallicRoughness":{
			"baseColorFactor":[1.0,
			1.0,
			1.0,
			1.0],
			"metallicFactor":1.0,
			"roughnessFactor":1.0
		},
		"emissiveFactor":[0.0,
		0.0,
		0.0],
		"alphaMode":"OPAQUE",
		"doubleSided":false,
		"name":""
	},
	{
		"pbrMetallicRoughness":{
			"baseColorFactor":[1.0,
			1.0,
			1.0,
			1.0],
			"metallicFactor":1.0,
			"roughnessFactor":1.0
		},
		"emissiveFactor":[0.0,
		0.0,
		0.0],
		"alphaMode":"OPAQUE",
		"doubleSided":false,
		"name":""
	},
	{
		"pbrMetallicRoughness":{
			"baseColorFactor":[0.0,
			0.4666666666666668,
			1.0,
			1.0],
			"metallicFactor":0.0,
			"roughnessFactor":0.5
		},
		"emissiveFactor":[0.0,
		0.0,
		0.0],
		"alphaMode":"OPAQUE",
		"doubleSided":false,
		"name":"材质.1"
	}]
}