{
	"asset":{
		"version":"2.0",
		"generator":"Created using the official Cinema 4D glTF Exporter 1.000x290161"
	},
	"scenes":[{
		"nodes":[0,
		1,
		2,
		3]
	}],
	"nodes":[{
		"name":"扫描.1",
		"translation":[0.0,
		3.814862012863159,
		0.0],
		"rotation":[0.0,
		0.0,
		0.0,
		-1.0],
		"scale":[1.0,
		1.0,
		1.0],
		"mesh":0
	},
	{
		"name":"celling",
		"translation":[177.47048950195313,
		1.3944861888885499,
		-107.30323028564453],
		"rotation":[0.7071067690849304,
		0.0,
		0.0,
		-0.7071067690849304],
		"scale":[1.0,
		1.0,
		1.0],
		"mesh":1
	},
	{
		"name":"floor",
		"translation":[177.47048950195313,
		1.3944861888885499,
		-107.30323028564453],
		"rotation":[0.7071067690849304,
		0.0,
		0.0,
		-0.7071067690849304],
		"scale":[1.0,
		1.0,
		1.0],
		"mesh":2
	},
	{
		"name":"slide",
		"translation":[143.15635681152345,
		-23.605514526367189,
		-91.35971069335938],
		"rotation":[0.7071067690849304,
		0.0,
		0.0,
		-0.7071067690849304],
		"scale":[1.0,
		1.0,
		1.0],
		"mesh":3
	}],
	"meshes":[{
		"primitives":[{
			"attributes":{
				"POSITION":1,
				"NORMAL":2,
				"TEXCOORD_0":3
			},
			"indices":0,
			"material":0
		}]
	},
	{
		"primitives":[{
			"attributes":{
				"POSITION":5,
				"NORMAL":6,
				"TEXCOORD_0":7
			},
			"indices":4,
			"material":1
		}]
	},
	{
		"primitives":[{
			"attributes":{
				"POSITION":9,
				"NORMAL":10,
				"TEXCOORD_0":11
			},
			"indices":8,
			"material":2
		}]
	},
	{
		"primitives":[{
			"attributes":{
				"POSITION":13,
				"NORMAL":14,
				"TEXCOORD_0":15
			},
			"indices":12,
			"material":3
		}]
	}],
	"accessors":[{
		"bufferView":0,
		"type":"SCALAR",
		"componentType":5123,
		"count":1080,
		"byteOffset":0,
		"min":[0],
		"max":[449]
	},
	{
		"bufferView":1,
		"type":"VEC3",
		"componentType":5126,
		"count":450,
		"byteOffset":0,
		"min":[32.82887268066406,
		-3.8897199630737306,
		-207.17620849609376],
		"max":[322.0973815917969,
		-0.9510319828987122,
		-7.350975513458252]
	},
	{
		"bufferView":1,
		"type":"VEC3",
		"componentType":5126,
		"count":450,
		"byteOffset":12,
		"min":[-1.0,
		-1.0,
		-0.9999613165855408],
		"max":[1.0,
		1.0,
		0.9999613165855408]
	},
	{
		"bufferView":1,
		"type":"VEC2",
		"componentType":5126,
		"count":450,
		"byteOffset":24,
		"min":[0.0,
		0.0],
		"max":[1.0,
		1.0]
	},
	{
		"bufferView":2,
		"type":"SCALAR",
		"componentType":5123,
		"count":129,
		"byteOffset":0,
		"min":[0],
		"max":[44]
	},
	{
		"bufferView":3,
		"type":"VEC3",
		"componentType":5126,
		"count":45,
		"byteOffset":0,
		"min":[-142.5397491455078,
		-97.90019989013672,
		0.0],
		"max":[142.5397491455078,
		97.90019989013672,
		0.0]
	},
	{
		"bufferView":3,
		"type":"VEC3",
		"componentType":5126,
		"count":45,
		"byteOffset":12,
		"min":[0.0,
		0.0,
		1.0],
		"max":[0.0,
		0.0,
		1.0]
	},
	{
		"bufferView":3,
		"type":"VEC2",
		"componentType":5126,
		"count":45,
		"byteOffset":24,
		"min":[0.0,
		0.0],
		"max":[1.0,
		0.6868273019790649]
	},
	{
		"bufferView":4,
		"type":"SCALAR",
		"componentType":5123,
		"count":129,
		"byteOffset":0,
		"min":[0],
		"max":[44]
	},
	{
		"bufferView":5,
		"type":"VEC3",
		"componentType":5126,
		"count":45,
		"byteOffset":0,
		"min":[-142.5397491455078,
		-97.90019989013672,
		-50.0],
		"max":[142.5397491455078,
		97.90019989013672,
		-50.0]
	},
	{
		"bufferView":5,
		"type":"VEC3",
		"componentType":5126,
		"count":45,
		"byteOffset":12,
		"min":[0.0,
		0.0,
		-1.0],
		"max":[0.0,
		0.0,
		-1.0]
	},
	{
		"bufferView":5,
		"type":"VEC2",
		"componentType":5126,
		"count":45,
		"byteOffset":24,
		"min":[0.0,
		0.0],
		"max":[1.0,
		0.6868273019790649]
	},
	{
		"bufferView":6,
		"type":"SCALAR",
		"componentType":5123,
		"count":270,
		"byteOffset":0,
		"min":[0],
		"max":[161]
	},
	{
		"bufferView":7,
		"type":"VEC3",
		"componentType":5126,
		"count":162,
		"byteOffset":0,
		"min":[-108.2256088256836,
		-81.95668029785156,
		-25.0],
		"max":[176.8538818359375,
		113.84371948242188,
		25.0]
	},
	{
		"bufferView":7,
		"type":"VEC3",
		"componentType":5126,
		"count":162,
		"byteOffset":12,
		"min":[-0.9998764991760254,
		-0.9999405741691589,
		0.0],
		"max":[1.0,
		0.9999613165855408,
		0.0]
	},
	{
		"bufferView":7,
		"type":"VEC2",
		"componentType":5126,
		"count":162,
		"byteOffset":24,
		"min":[0.0,
		0.0],
		"max":[1.0,
		1.0]
	}],
	"bufferViews":[{
		"buffer":0,
		"byteOffset":0,
		"byteLength":2160,
		"target":34963
	},
	{
		"buffer":0,
		"byteOffset":2160,
		"byteLength":14400,
		"target":34962,
		"byteStride":32
	},
	{
		"buffer":1,
		"byteOffset":0,
		"byteLength":258,
		"target":34963
	},
	{
		"buffer":1,
		"byteOffset":260,
		"byteLength":1440,
		"target":34962,
		"byteStride":32
	},
	{
		"buffer":2,
		"byteOffset":0,
		"byteLength":258,
		"target":34963
	},
	{
		"buffer":2,
		"byteOffset":260,
		"byteLength":1440,
		"target":34962,
		"byteStride":32
	},
	{
		"buffer":3,
		"byteOffset":0,
		"byteLength":540,
		"target":34963
	},
	{
		"buffer":3,
		"byteOffset":540,
		"byteLength":5184,
		"target":34962,
		"byteStride":32
	}],
	"buffers":[{
		"uri":"data:application/octet-stream;base64,",
		"byteLength":16560
	},
	{
		"uri":"data:application/octet-stream;base64,",
		"byteLength":1700
	},
	{
		"uri":"data:application/octet-stream;base64,",
		"byteLength":1700
	},
	{
		"uri":"data:application/octet-stream;base64,",
		"byteLength":5724
	}],
	"materials":[{
		"pbrMetallicRoughness":{
			"baseColorFactor":[0.315,
			0.6562500000000003,
			0.9,
			1.0],
			"metallicFactor":0.0,
			"roughnessFactor":0.5
		},
		"emissiveFactor":[0.0,
		0.0,
		0.0],
		"alphaMode":"OPAQUE",
		"doubleSided":false,
		"name":"材质"
	},
	{
		"pbrMetallicRoughness":{
			"baseColorFactor":[1.0,
			1.0,
			1.0,
			1.0],
			"metallicFactor":1.0,
			"roughnessFactor":1.0
		},
		"emissiveFactor":[0.0,
		0.0,
		0.0],
		"alphaMode":"OPAQUE",
		"doubleSided":false,
		"name":""
	},
	{
		"pbrMetallicRoughness":{
			"baseColorFactor":[1.0,
			1.0,
			1.0,
			1.0],
			"metallicFactor":1.0,
			"roughnessFactor":1.0
		},
		"emissiveFactor":[0.0,
		0.0,
		0.0],
		"alphaMode":"OPAQUE",
		"doubleSided":false,
		"name":""
	},
	{
		"pbrMetallicRoughness":{
			"baseColorFactor":[0.0,
			0.4666666666666668,
			1.0,
			1.0],
			"metallicFactor":0.0,
			"roughnessFactor":0.5
		},
		"emissiveFactor":[0.0,
		0.0,
		0.0],
		"alphaMode":"OPAQUE",
		"doubleSided":false,
		"name":"材质.1"
	}]
}