{
	"asset":{
		"version":"2.0",
		"generator":"Created using the official Cinema 4D glTF Exporter 1.000x284978"
	},
	"scenes":[{
		"nodes":[0]
	}],
	"nodes":[{
		"name":"空白",
		"translation":[0,
		0,
		0],
		"rotation":[0.706,
		0.048,
		0.048,
		-0.706],
		"scale":[1,
		1,
		-1],
		"children":[1,
		2,
		3,
		4]
	},
	{
		"name":"celling",
		"translation":[-757.777,
		121.191,
		37.19],
		"rotation":[0,
		0,
		0,
		-1],
		"scale":[1,
		1,
		1],
		"mesh":0
	},
	{
		"name":"floor",
		"translation":[-757.777,
		121.191,
		-148.163],
		"rotation":[0,
		0,
		0,
		-1],
		"scale":[1,
		1,
		1],
		"mesh":1
	},
	{
		"name":"slide",
		"translation":[-377.071,
		1151.219,
		69.929],
		"rotation":[0,
		0,
		0,
		-1],
		"scale":[1,
		1,
		1],
		"mesh":2
	},
	{
		"name":"scan",
		"translation":[-42133.703,
		18086.764,
		41.044],
		"rotation":[0,
		0,
		0,
		-1],
		"scale":[1,
		1,
		1],
		"mesh":3
	}],
	"meshes":[{
		"primitives":[{
			"attributes":{
				"POSITION":1
			},
			"indices":0,
			"material":0
		}]
	},
	{
		"primitives":[{
			"attributes":{
				"POSITION":3
			},
			"indices":2,
			"material":1
		}]
	},
	{
		"primitives":[{
			"attributes":{
				"POSITION":5
			},
			"indices":4,
			"material":2
		}]
	},
	{
		"primitives":[{
			"attributes":{
				"POSITION":7,
				"NORMAL":8,
				"TEXCOORD_0":9
			},
			"indices":6,
			"material":3
		}]
	}],
	"accessors":[{
		"bufferView":0,
		"componentType":5123,
		"type":"SCALAR",
		"count":429,
		"byteOffset":0,
		"min":[0],
		"max":[144]
	},
	{
		"bufferView":1,
		"componentType":5126,
		"type":"VEC3",
		"count":145,
		"byteOffset":0,
		"min":[-6686.49,
		-4758.708,
		0],
		"max":[6686.49,
		4758.708,
		0]
	},
	{
		"bufferView":2,
		"componentType":5123,
		"type":"SCALAR",
		"count":429,
		"byteOffset":0,
		"min":[0],
		"max":[144]
	},
	{
		"bufferView":3,
		"componentType":5126,
		"type":"VEC3",
		"count":145,
		"byteOffset":0,
		"min":[-6686.49,
		-4758.708,
		300],
		"max":[6686.49,
		4758.708,
		300]
	},
	{
		"bufferView":4,
		"componentType":5123,
		"type":"SCALAR",
		"count":870,
		"byteOffset":0,
		"min":[0],
		"max":[289]
	},
	{
		"bufferView":5,
		"componentType":5126,
		"type":"VEC3",
		"count":290,
		"byteOffset":0,
		"min":[-7067.195,
		-5788.736,
		-28.175],
		"max":[6305.784,
		3728.68,
		84.524]
	},
	{
		"bufferView":6,
		"componentType":5123,
		"type":"SCALAR",
		"count":3480,
		"byteOffset":0,
		"min":[0],
		"max":[1338]
	},
	{
		"bufferView":7,
		"componentType":5126,
		"type":"VEC3",
		"count":1339,
		"byteOffset":0,
		"min":[34655.113,
		-22772.076,
		-34.136],
		"max":[48114.797,
		-13128.087,
		34.136]
	},
	{
		"bufferView":7,
		"componentType":5126,
		"type":"VEC3",
		"count":1339,
		"byteOffset":12,
		"min":[-1,
		-1,
		-1],
		"max":[1,
		1,
		1]
	},
	{
		"bufferView":7,
		"componentType":5126,
		"type":"VEC2",
		"count":1339,
		"byteOffset":24,
		"min":[0,
		0],
		"max":[1,
		1]
	}],
	"bufferViews":[{
		"buffer":0,
		"byteOffset":0,
		"byteLength":858,
		"target":34963
	},
	{
		"buffer":0,
		"byteOffset":860,
		"byteLength":1740,
		"target":34962
	},
	{
		"buffer":1,
		"byteOffset":0,
		"byteLength":858,
		"target":34963
	},
	{
		"buffer":1,
		"byteOffset":860,
		"byteLength":1740,
		"target":34962
	},
	{
		"buffer":2,
		"byteOffset":0,
		"byteLength":1740,
		"target":34963
	},
	{
		"buffer":2,
		"byteOffset":1740,
		"byteLength":3480,
		"target":34962
	},
	{
		"buffer":3,
		"byteOffset":0,
		"byteLength":6960,
		"target":34963
	},
	{
		"buffer":3,
		"byteOffset":6960,
		"byteLength":42848,
		"target":34962,
		"byteStride":32
	}],
	"buffers":[{
		"uri":"data:application/octet-stream;base64,",
		"byteLength":2600
	},
	{
		"uri":"data:application/octet-stream;base64,",
		"byteLength":2600
	},
	{
		"uri":"data:application/octet-stream;base64,",
		"byteLength":5220
	},
	{
		"uri":"data:application/octet-stream;base64,",
		"byteLength":49808
	}],
	"materials":[{
		"pbrMetallicRoughness":{
			"baseColorFactor":[1,
			1,
			1,
			1],
			"metallicFactor":1,
			"roughnessFactor":1
		},
		"emissiveFactor":[0,
		0,
		0],
		"alphaMode":"OPAQUE",
		"doubleSided":true,
		"name":""
	},
	{
		"pbrMetallicRoughness":{
			"baseColorFactor":[1,
			1,
			1,
			1],
			"metallicFactor":1,
			"roughnessFactor":1
		},
		"emissiveFactor":[0,
		0,
		0],
		"alphaMode":"OPAQUE",
		"doubleSided":true,
		"name":""
	},
	{
		"pbrMetallicRoughness":{
			"baseColorFactor":[1,
			1,
			1,
			1],
			"metallicFactor":1,
			"roughnessFactor":1
		},
		"emissiveFactor":[0,
		0,
		0],
		"alphaMode":"OPAQUE",
		"doubleSided":true,
		"name":""
	},
	{
		"pbrMetallicRoughness":{
			"baseColorFactor":[0.315,
			0.656,
			0.9,
			1],
			"metallicFactor":0,
			"roughnessFactor":0.5
		},
		"emissiveFactor":[0,
		0,
		0],
		"alphaMode":"OPAQUE",
		"doubleSided":true,
		"name":"材质"
	}]
}